<svg version="1.1" xmlns="http://www.w3.org/2000/svg" style="display: block;" viewBox="0 0 2048 2048" width="1024" height="1024" preserveAspectRatio="none">
<path transform="translate(0,0)" fill="rgb(255,255,255)" d="M 0 0 L 2048 0 L 2048 2048 L 0 2048 L 0 0 z"/>
<path transform="translate(0,0)" fill="rgb(0,65,3)" d="M 451.648 158.002 L 918.791 157.892 C 995.092 157.869 1074.54 159.022 1150.54 157.659 C 1166.83 174.266 1188.19 197.218 1205.54 211.933 C 1218.87 223.241 1241.74 248.805 1254.79 262.209 C 1289.61 297.521 1324.2 333.046 1358.58 368.779 C 1399.03 409.903 1439.12 451.377 1478.85 493.197 L 1513.33 528.702 C 1516.7 532.162 1526.58 541.881 1529.31 545.332 C 1576.26 591.713 1628.63 645.827 1674.13 693.804 L 1674.06 1433.57 C 1674.05 1562.96 1672.42 1695.93 1674.17 1825.07 C 1636.61 1825.11 1598.47 1824.89 1560.96 1825.5 L 1561.04 1889.74 L 373.027 1889.7 L 373.045 213.04 L 451.961 213.056 L 451.648 158.002 z"/>
<path transform="translate(0,0)" fill="rgb(56,124,2)" d="M 1529.31 545.332 C 1576.26 591.713 1628.63 645.827 1674.13 693.804 L 1674.06 1433.57 C 1674.05 1562.96 1672.42 1695.93 1674.17 1825.07 C 1636.61 1825.11 1598.47 1824.89 1560.96 1825.5 L 1560.97 1010.66 L 1561 737.618 C 1561.06 688.568 1560.62 639.421 1561.14 590.365 C 1561.16 588.573 1561.03 588.301 1560.13 586.825 C 1562.33 579.615 1534.42 556.027 1529.31 545.332 z"/>
<path transform="translate(0,0)" fill="rgb(161,250,1)" d="M 1205.54 211.933 C 1218.87 223.241 1241.74 248.805 1254.79 262.209 C 1289.61 297.521 1324.2 333.046 1358.58 368.779 C 1399.03 409.903 1439.12 451.377 1478.85 493.197 L 1513.33 528.702 C 1516.7 532.162 1526.58 541.881 1529.31 545.332 C 1534.42 556.027 1562.33 579.615 1560.13 586.825 C 1549.74 586.987 1539.34 587.095 1528.95 587.149 L 1327.24 587.22 L 1274.04 587.336 C 1252.85 587.402 1232.99 590.623 1216.98 574.446 C 1200.35 557.651 1203.65 534.66 1203.75 513.244 L 1203.99 450.605 L 1204.25 222.598 C 1205.36 219.205 1205.34 215.531 1205.54 211.933 z"/>
<path transform="translate(0,0)" fill="rgb(129,189,9)" d="M 451.648 158.002 L 918.791 157.892 C 995.092 157.869 1074.54 159.022 1150.54 157.659 C 1166.83 174.266 1188.19 197.218 1205.54 211.933 C 1205.34 215.531 1205.36 219.205 1204.25 222.598 C 1204.27 218.271 1205.09 216.009 1202.91 213.095 C 1180.19 212.121 1149.57 213.198 1126.07 213.207 L 965.779 213.193 L 451.961 213.056 L 451.648 158.002 z"/>
</svg>