<?xml version="1.0" encoding="UTF-8"?>
<svg version="1.1" xmlns="http://www.w3.org/2000/svg" width="800" height="540">
<path d="M0 0 C264 0 528 0 800 0 C800 178.2 800 356.4 800 540 C536 540 272 540 0 540 C0 361.8 0 183.6 0 0 Z " fill="#E8EDF0" transform="translate(0,0)"/>
<path d="M0 0 C1.01275971 -0.00311998 2.02551943 -0.00623996 3.06896883 -0.00945449 C6.46673828 -0.01743959 9.8643294 -0.01110874 13.26210022 -0.00482178 C15.69642237 -0.00753142 18.1307437 -0.01109221 20.56506348 -0.01544189 C26.49337329 -0.02362323 32.42163671 -0.02241406 38.34994524 -0.01661661 C43.16861968 -0.01209947 47.98727993 -0.01148745 52.80595589 -0.01366425 C53.49183569 -0.01397071 54.17771549 -0.01427718 54.88437952 -0.01459293 C56.27775347 -0.01523238 57.67112741 -0.01588081 59.06450135 -0.01653811 C72.13063066 -0.02224134 85.19673191 -0.01568386 98.26285661 -0.00493738 C109.47160292 0.00399613 120.68030779 0.00244773 131.88905334 -0.0067749 C144.90694615 -0.01748111 157.92481435 -0.02168991 170.94271094 -0.01555037 C172.33125881 -0.01491328 173.71980669 -0.01428454 175.10835457 -0.01366425 C175.7915347 -0.01335569 176.47471484 -0.01304714 177.1785974 -0.01272924 C181.99037768 -0.0110032 186.80214235 -0.01391548 191.61392021 -0.01862335 C198.09241105 -0.02482261 204.57084206 -0.02040038 211.04932594 -0.00883484 C213.42855575 -0.00618799 215.80779214 -0.00695376 218.18701935 -0.01136017 C221.43181637 -0.016816 224.67636164 -0.00998073 227.92114258 0 C228.86521011 -0.00446144 229.80927764 -0.00892289 230.78195328 -0.01351953 C239.10482955 0.03621771 245.58740367 1.81730784 251.66468811 7.89459229 C256.80207325 13.63050773 258.32544853 18.27146009 258.28475952 26.0078125 C258.28858507 26.78160948 258.29241062 27.55540646 258.29635209 28.35265183 C258.30665918 30.94189668 258.30269427 33.53091883 258.29872131 36.12017822 C258.30306915 37.97821253 258.30825254 39.83624505 258.31420898 41.6942749 C258.32760494 46.73989694 258.32817681 51.78544408 258.32564569 56.83108044 C258.32457602 61.04560583 258.32945941 65.26011607 258.33425111 69.47463822 C258.34534912 79.42094954 258.34578254 89.36722309 258.33973694 99.3135376 C258.33370087 109.56602045 258.34599819 119.81836593 258.36730701 130.07082534 C258.38493854 138.87864612 258.39092177 147.68642325 258.38766927 156.49426103 C258.38585818 161.75221124 258.38847487 167.01006354 258.4023838 172.26799774 C258.41498213 177.21580098 258.41299901 182.16339074 258.39997292 187.1111908 C258.39761167 188.92315494 258.40032558 190.73513419 258.40859604 192.54708099 C258.49817547 213.70524898 258.49817547 213.70524898 251.01234436 222.64849854 C244.60018886 227.82609364 238.6326949 228.8386155 230.55569458 228.76863098 C229.52615408 228.77557651 228.49661358 228.78252204 227.43587488 228.78967804 C223.99898372 228.80791944 220.56278504 228.79769127 217.12586975 228.78741455 C214.65656011 228.79447442 212.18725479 228.80321972 209.71795654 228.81352234 C203.71478343 228.83368326 197.71188054 228.8350458 191.7087012 228.82689679 C186.82765759 228.82058718 181.94666919 228.82174262 177.06562614 228.82816887 C176.36991754 228.82907052 175.67420893 228.82997218 174.95741824 228.83090116 C173.54391808 228.83275243 172.13041794 228.83461499 170.71691781 228.83648872 C157.47325334 228.8530533 144.22969553 228.8443595 130.98603749 228.82750314 C118.88072871 228.81280797 106.77566819 228.82743425 94.67039139 228.8562733 C82.22750105 228.88569493 69.78472517 228.8966315 57.34180158 228.8870911 C55.93330636 228.88606859 54.52481111 228.88507398 53.11631584 228.88410759 C52.42338637 228.8836312 51.73045689 228.88315481 51.01652955 228.88266398 C46.14447008 228.88050346 41.27251943 228.89028459 36.40048409 228.90487862 C29.83647911 228.92426734 23.27286073 228.91727544 16.70884895 228.89267921 C14.30185171 228.88767171 11.89481931 228.8911594 9.48785019 228.90382767 C6.1978427 228.91977179 2.9093516 228.90479246 -0.38058472 228.88215637 C-1.32943116 228.8939921 -2.2782776 228.90582783 -3.25587696 228.91802222 C-10.94671604 228.8107751 -16.74756796 226.395083 -22.28843689 221.00396729 C-22.84531189 220.09646729 -23.40218689 219.18896729 -23.97593689 218.25396729 C-24.31288039 217.72801688 -24.64982389 217.20206648 -24.99697781 216.66017818 C-29.3397768 208.66919082 -28.54469733 199.77243707 -28.50938416 190.94952393 C-28.51644908 189.09251726 -28.5251965 187.23551635 -28.53549194 185.37852478 C-28.55793125 180.35365821 -28.55505897 175.32910744 -28.54617047 170.30420995 C-28.54104854 166.10198928 -28.54836292 161.89982732 -28.55564255 157.6976127 C-28.57262421 147.78087953 -28.56909312 137.8643003 -28.55235291 127.9475708 C-28.53543141 117.73241045 -28.55127056 107.51767742 -28.58357579 97.30256373 C-28.61030372 88.51670398 -28.61753908 79.730977 -28.6090607 70.9450807 C-28.60414109 65.70442591 -28.60629494 60.46402817 -28.62684822 55.22340584 C-28.64525573 50.29428138 -28.6391847 45.36576982 -28.61464882 40.43667793 C-28.60965709 38.63319705 -28.61308792 36.82966905 -28.62579727 35.02622604 C-28.69617418 24.17728236 -28.21600792 15.4467785 -20.91343689 6.81646729 C-19.95437439 6.04302979 -19.95437439 6.04302979 -18.97593689 5.25396729 C-18.33656189 4.71771729 -17.69718689 4.18146729 -17.03843689 3.62896729 C-11.47983639 -0.07676638 -6.48050802 -0.03055318 0 0 Z " fill="#E8EDF0" transform="translate(286.97593688964844,156.74603271484375)"/>
<path d="M0 0 C1.01275971 -0.00311998 2.02551943 -0.00623996 3.06896883 -0.00945449 C6.46673828 -0.01743959 9.8643294 -0.01110874 13.26210022 -0.00482178 C15.69642237 -0.00753142 18.1307437 -0.01109221 20.56506348 -0.01544189 C26.49337329 -0.02362323 32.42163671 -0.02241406 38.34994524 -0.01661661 C43.16861968 -0.01209947 47.98727993 -0.01148745 52.80595589 -0.01366425 C53.49183569 -0.01397071 54.17771549 -0.01427718 54.88437952 -0.01459293 C56.27775347 -0.01523238 57.67112741 -0.01588081 59.06450135 -0.01653811 C72.13063066 -0.02224134 85.19673191 -0.01568386 98.26285661 -0.00493738 C109.47160292 0.00399613 120.68030779 0.00244773 131.88905334 -0.0067749 C144.90694615 -0.01748111 157.92481435 -0.02168991 170.94271094 -0.01555037 C172.33125881 -0.01491328 173.71980669 -0.01428454 175.10835457 -0.01366425 C175.7915347 -0.01335569 176.47471484 -0.01304714 177.1785974 -0.01272924 C181.99037768 -0.0110032 186.80214235 -0.01391548 191.61392021 -0.01862335 C198.09241105 -0.02482261 204.57084206 -0.02040038 211.04932594 -0.00883484 C213.42855575 -0.00618799 215.80779214 -0.00695376 218.18701935 -0.01136017 C221.43181637 -0.016816 224.67636164 -0.00998073 227.92114258 0 C228.86521011 -0.00446144 229.80927764 -0.00892289 230.78195328 -0.01351953 C239.10482955 0.03621771 245.58740367 1.81730784 251.66468811 7.89459229 C256.80207325 13.63050773 258.32544853 18.27146009 258.28475952 26.0078125 C258.28858507 26.78160948 258.29241062 27.55540646 258.29635209 28.35265183 C258.30665918 30.94189668 258.30269427 33.53091883 258.29872131 36.12017822 C258.30306915 37.97821253 258.30825254 39.83624505 258.31420898 41.6942749 C258.32760494 46.73989694 258.32817681 51.78544408 258.32564569 56.83108044 C258.32457602 61.04560583 258.32945941 65.26011607 258.33425111 69.47463822 C258.34534912 79.42094954 258.34578254 89.36722309 258.33973694 99.3135376 C258.33370087 109.56602045 258.34599819 119.81836593 258.36730701 130.07082534 C258.38493854 138.87864612 258.39092177 147.68642325 258.38766927 156.49426103 C258.38585818 161.75221124 258.38847487 167.01006354 258.4023838 172.26799774 C258.41498213 177.21580098 258.41299901 182.16339074 258.39997292 187.1111908 C258.39761167 188.92315494 258.40032558 190.73513419 258.40859604 192.54708099 C258.49817547 213.70524898 258.49817547 213.70524898 251.01234436 222.64849854 C244.60018886 227.82609364 238.6326949 228.8386155 230.55569458 228.76863098 C229.52615408 228.77557651 228.49661358 228.78252204 227.43587488 228.78967804 C223.99898372 228.80791944 220.56278504 228.79769127 217.12586975 228.78741455 C214.65656011 228.79447442 212.18725479 228.80321972 209.71795654 228.81352234 C203.71478343 228.83368326 197.71188054 228.8350458 191.7087012 228.82689679 C186.82765759 228.82058718 181.94666919 228.82174262 177.06562614 228.82816887 C176.36991754 228.82907052 175.67420893 228.82997218 174.95741824 228.83090116 C173.54391808 228.83275243 172.13041794 228.83461499 170.71691781 228.83648872 C157.47325334 228.8530533 144.22969553 228.8443595 130.98603749 228.82750314 C118.88072871 228.81280797 106.77566819 228.82743425 94.67039139 228.8562733 C82.22750105 228.88569493 69.78472517 228.8966315 57.34180158 228.8870911 C55.93330636 228.88606859 54.52481111 228.88507398 53.11631584 228.88410759 C52.42338637 228.8836312 51.73045689 228.88315481 51.01652955 228.88266398 C46.14447008 228.88050346 41.27251943 228.89028459 36.40048409 228.90487862 C29.83647911 228.92426734 23.27286073 228.91727544 16.70884895 228.89267921 C14.30185171 228.88767171 11.89481931 228.8911594 9.48785019 228.90382767 C6.1978427 228.91977179 2.9093516 228.90479246 -0.38058472 228.88215637 C-1.32943116 228.8939921 -2.2782776 228.90582783 -3.25587696 228.91802222 C-10.94671604 228.8107751 -16.74756796 226.395083 -22.28843689 221.00396729 C-22.84531189 220.09646729 -23.40218689 219.18896729 -23.97593689 218.25396729 C-24.31288039 217.72801688 -24.64982389 217.20206648 -24.99697781 216.66017818 C-29.3397768 208.66919082 -28.54469733 199.77243707 -28.50938416 190.94952393 C-28.51644908 189.09251726 -28.5251965 187.23551635 -28.53549194 185.37852478 C-28.55793125 180.35365821 -28.55505897 175.32910744 -28.54617047 170.30420995 C-28.54104854 166.10198928 -28.54836292 161.89982732 -28.55564255 157.6976127 C-28.57262421 147.78087953 -28.56909312 137.8643003 -28.55235291 127.9475708 C-28.53543141 117.73241045 -28.55127056 107.51767742 -28.58357579 97.30256373 C-28.61030372 88.51670398 -28.61753908 79.730977 -28.6090607 70.9450807 C-28.60414109 65.70442591 -28.60629494 60.46402817 -28.62684822 55.22340584 C-28.64525573 50.29428138 -28.6391847 45.36576982 -28.61464882 40.43667793 C-28.60965709 38.63319705 -28.61308792 36.82966905 -28.62579727 35.02622604 C-28.69617418 24.17728236 -28.21600792 15.4467785 -20.91343689 6.81646729 C-19.95437439 6.04302979 -19.95437439 6.04302979 -18.97593689 5.25396729 C-18.33656189 4.71771729 -17.69718689 4.18146729 -17.03843689 3.62896729 C-11.47983639 -0.07676638 -6.48050802 -0.03055318 0 0 Z M-8.97593689 22.25396729 C-9.2683902 24.77818189 -9.37655832 27.05548919 -9.35015869 29.57989502 C-9.3541331 30.33171523 -9.3581075 31.08353544 -9.36220235 31.85813808 C-9.37184953 34.38480306 -9.3599929 36.9109115 -9.34825134 39.43756104 C-9.35067851 41.24592295 -9.35439711 43.05428352 -9.35931396 44.86264038 C-9.36873683 49.77993407 -9.35928581 54.6970292 -9.34598184 59.6143074 C-9.33468489 64.75387867 -9.33877348 69.89343991 -9.34072876 75.03302002 C-9.34161229 83.66497043 -9.33051897 92.2968424 -9.31211853 100.92877197 C-9.29095001 110.91660588 -9.28744068 120.90432483 -9.29368049 130.89217663 C-9.29937006 140.48968719 -9.29373328 150.08715716 -9.28250694 159.68466187 C-9.27785556 163.77392322 -9.27698943 167.8631598 -9.27909279 171.9524231 C-9.28097286 176.76554973 -9.27289348 181.57855893 -9.25703239 186.39165878 C-9.25278047 188.16098418 -9.25194506 189.93032148 -9.2547226 191.69964981 C-9.25793205 194.10924305 -9.24889404 196.51848268 -9.2366333 198.92803955 C-9.24041262 199.63318915 -9.24419195 200.33833876 -9.2480858 201.06485653 C-9.21527743 204.69361506 -9.05038334 206.14229761 -6.97593689 209.25396729 C-5.11597696 209.70453522 -5.11597696 209.70453522 -2.94320011 209.6286974 C-1.67030442 209.63950721 -1.67030442 209.63950721 -0.37169367 209.6505354 C0.56593472 209.64316112 1.50356312 209.63578683 2.46960449 209.62818909 C3.46149987 209.63216349 4.45339524 209.6361379 5.47534806 209.64023274 C8.82042408 209.64990657 12.16508251 209.63800683 15.51014709 209.62628174 C17.89963439 209.62870804 20.28912067 209.63242578 22.67860413 209.63734436 C28.50809162 209.64579834 34.33744343 209.64021813 40.16692191 209.62808142 C46.95138479 209.61448115 53.73581804 209.61609756 60.5202911 209.61821475 C72.62386876 209.62140708 84.72738764 209.60972343 96.83094788 209.59014893 C108.58291922 209.57114794 120.33482165 209.56405997 132.08680725 209.56964111 C144.87392585 209.57569586 157.66101411 209.5755271 170.44813019 209.56415528 C171.81111371 209.56294795 173.17409724 209.56174197 174.53708076 209.56053734 C175.20774745 209.5599338 175.87841413 209.55933026 176.56940405 209.55870843 C181.30140425 209.55482509 186.03339318 209.55522454 190.76539421 209.55712318 C197.13222454 209.55900214 203.498966 209.55093242 209.86577606 209.53506279 C212.20755966 209.53080776 214.54935226 209.52997752 216.89113808 209.53275299 C220.07803673 209.53595794 223.26466704 209.52693554 226.45153809 209.5146637 C227.85463459 209.52033268 227.85463459 209.52033268 229.28607649 209.52611619 C230.5628838 209.5173679 230.5628838 209.5173679 231.86548519 209.50844288 C232.60143821 209.5075761 233.33739122 209.50670932 234.09564584 209.50581628 C236.35023395 209.35594421 236.35023395 209.35594421 239.02406311 207.25396729 C239.3253607 204.75839692 239.42850074 202.50898872 239.40501404 200.0103302 C239.412034 198.87775619 239.412034 198.87775619 239.41919577 197.7223019 C239.43121283 195.17872607 239.42166264 192.63568238 239.4122467 190.09210205 C239.41630947 188.27403446 239.42164968 186.45596934 239.42817688 184.63790894 C239.44189239 179.68957545 239.43653417 174.74142891 239.42703962 169.79309201 C239.41946374 164.62281352 239.42648296 159.45255143 239.43119812 154.28227234 C239.43666222 145.59727087 239.42944743 136.91234583 239.41517639 128.22735596 C239.39885377 118.17759686 239.40413295 108.12802038 239.42065561 98.07826573 C239.43425798 89.46082415 239.4361961 80.84343764 239.4283396 72.22598881 C239.42365555 67.0743863 239.42305819 61.92286969 239.43294907 56.77127266 C239.44159812 51.92775147 239.43563462 47.08446624 239.4182663 42.24097061 C239.41429019 40.46035721 239.41545462 38.67972404 239.42205429 36.89911842 C239.43021583 34.47400437 239.42001417 32.04965307 239.40501404 29.62458801 C239.41505229 28.56000401 239.41505229 28.56000401 239.42529333 27.47391325 C239.41338028 23.77446327 239.41338028 23.77446327 237.75922835 20.57426435 C235.62457871 18.94999734 234.54549886 18.87821393 231.88389587 18.87644386 C231.0367911 18.86862062 230.18968632 18.86079738 229.3169117 18.85273707 C228.38608709 18.85942923 227.45526249 18.8661214 226.49623108 18.87301636 C225.50756483 18.86833639 224.51889858 18.86365641 223.50027275 18.85883462 C220.17213077 18.84682456 216.84439599 18.85636543 213.51625061 18.86578369 C211.13646707 18.86172067 208.75668541 18.85638031 206.37690735 18.84985352 C200.57496866 18.83756755 194.77316038 18.83940237 188.97121763 18.84809144 C184.25686913 18.85486008 179.54255326 18.85578827 174.82820129 18.85251999 C174.15783651 18.85206029 173.48747173 18.85160059 172.79679286 18.85112696 C171.43506065 18.85016781 170.07332845 18.84919517 168.71159625 18.84820919 C155.93550348 18.83964969 143.15947524 18.84949818 130.38339305 18.86561029 C119.41527679 18.87901399 108.44725578 18.87668606 97.47914124 18.862854 C84.74950911 18.84680805 72.01993357 18.84047372 59.29029274 18.84969079 C57.93350348 18.85064647 56.57671421 18.85158958 55.21992493 18.85251999 C54.21851355 18.85321423 54.21851355 18.85321423 53.19687164 18.85392249 C48.48689091 18.85651535 43.77694601 18.85213505 39.06697083 18.84508133 C32.73046564 18.83643788 26.39414095 18.84238561 20.05765533 18.8597641 C17.7271581 18.86374298 15.39664578 18.86257112 13.06615448 18.8559761 C9.89452713 18.84782588 6.72348481 18.85800325 3.55189514 18.87301636 C2.15565824 18.86297811 2.15565824 18.86297811 0.73121452 18.85273707 C-0.11589025 18.86056031 -0.96299503 18.86838355 -1.83576965 18.87644386 C-2.93432942 18.87717445 -2.93432942 18.87717445 -4.05508232 18.87791979 C-6.56453912 19.36919849 -7.45049651 20.22928788 -8.97593689 22.25396729 Z " fill="#BABEC1" transform="translate(286.97593688964844,156.74603271484375)"/>
<path d="M0 0 C0 0.66 0 1.32 0 2 C0.66 2 1.32 2 2 2 C2.556875 2.70125 3.11375 3.4025 3.6875 4.125 C5.54731713 6.43720508 7.1219522 8.02481505 9.375 9.875 C12.47726484 12.45359193 15.02518519 15.23805457 17.59765625 18.3359375 C20.39194196 21.65171943 23.39321465 24.52805584 26.8125 27.1875 C27.534375 27.785625 28.25625 28.38375 29 29 C29 29.66 29 30.32 29 31 C29.59941406 31.26167969 30.19882812 31.52335937 30.81640625 31.79296875 C33.13061764 33.07220188 34.29659445 34.26250442 35.9375 36.3125 C40.5843719 41.92795066 45.85246109 46.70233698 51.3046875 51.5234375 C54.63239072 54.58106626 57.80447951 57.80447951 61 61 C61 83.11 61 105.22 61 128 C-8.3 128 -77.6 128 -149 128 C-149 118.43 -149 108.86 -149 99 C-146.36 96.69 -143.72 94.38 -141 92 C-139.48590553 90.56044687 -137.98658502 89.10496194 -136.51171875 87.62524414 C-135.73151367 86.84496353 -134.95130859 86.06468292 -134.14746094 85.26075745 C-133.33567383 84.44380905 -132.52388672 83.62686066 -131.6875 82.78515625 C-130.83317383 81.92941513 -129.97884766 81.07367401 -129.09863281 80.19200134 C-126.39671138 77.48452619 -123.69830641 74.77357746 -121 72.0625 C-119.15778423 70.21526325 -117.31533857 68.36825573 -115.47265625 66.52148438 C-110.97910939 62.01696997 -106.4884368 57.50960595 -102 53 C-98.46682059 54.65778806 -96.28979719 56.53854078 -93.59375 59.38671875 C-92.76746094 60.24201172 -91.94117188 61.09730469 -91.08984375 61.97851562 C-89.35741876 63.79063739 -87.63087803 65.60840224 -85.91015625 67.43164062 C-85.08386719 68.28306641 -84.25757813 69.13449219 -83.40625 70.01171875 C-82.65666016 70.80022217 -81.90707031 71.58872559 -81.13476562 72.40112305 C-79.18243371 74.24434142 -79.18243371 74.24434142 -77.06900978 73.78065586 C-74.70808442 72.88985765 -73.53144291 71.89659359 -71.76107788 70.10838318 C-71.1442363 69.49277527 -70.52739471 68.87716736 -69.89186096 68.24290466 C-69.22678024 67.56389603 -68.56169952 66.88488739 -67.87646484 66.18530273 C-67.16708267 65.47314606 -66.4577005 64.76098938 -65.7268219 64.0272522 C-63.38130154 61.66943595 -61.04635764 59.30141087 -58.7109375 56.93359375 C-57.08556656 55.29755085 -55.45938579 53.66231213 -53.83242798 52.02784729 C-49.5492774 47.72189058 -45.27433373 43.40788847 -41.00189209 39.09130859 C-34.15705299 32.17633371 -27.30475191 25.26882525 -20.4432869 18.37034798 C-18.04241634 15.95270518 -15.64802981 13.52876709 -13.2539978 11.10435486 C-11.79117559 9.63107761 -10.32810534 8.15804657 -8.86474609 6.68530273 C-8.19561691 6.00426987 -7.52648773 5.323237 -6.83708191 4.62156677 C-5.92027901 3.70238464 -5.92027901 3.70238464 -4.98495483 2.76463318 C-4.18802247 1.95909075 -4.18802247 1.95909075 -3.37499046 1.13727474 C-2 0 -2 0 0 0 Z " fill="#B9BDC0" transform="translate(446,219)"/>
<path d="M0 0 C6.65477082 3.70193403 12.55915687 8.98266595 15.25 16.33203125 C17.40864977 27.02891183 15.51194603 36.02786056 10.0625 45.25 C2.28341902 52.61965566 -5.83324939 55.1698068 -16.375 54.8984375 C-24.43317998 54.08302643 -30.15707261 50.30957002 -35.3125 44.1875 C-40.38783353 36.90920396 -42.49544408 29.35168499 -41.3125 20.5 C-39.26504562 12.01400983 -34.56613071 5.73084242 -27.12109375 1.15234375 C-18.13176975 -3.46648018 -9.35555794 -4.34786005 0 0 Z " fill="#BABEC1" transform="translate(338.3125,197.5)"/>
</svg>
