<?xml version="1.0" encoding="UTF-8"?>
<svg version="1.1" xmlns="http://www.w3.org/2000/svg" width="512" height="512">
<path d="M0 0 C1.60578918 -0.01007584 1.60578918 -0.01007584 3.24401855 -0.02035522 C6.78211106 -0.03934889 10.32001398 -0.04326021 13.8581543 -0.04541016 C16.32049131 -0.05183735 18.78282756 -0.05856565 21.24516296 -0.06558228 C26.40743785 -0.07755863 31.5696458 -0.08126274 36.73193359 -0.08007812 C43.33949123 -0.07987497 49.94661859 -0.10717241 56.55407429 -0.14162254 C61.64051781 -0.16388527 66.7268577 -0.16791584 71.81334496 -0.16685867 C74.24894887 -0.16921575 76.68455559 -0.17804519 79.12011147 -0.19352341 C82.53089953 -0.21316881 85.94075875 -0.20735003 89.3515625 -0.1953125 C90.35287704 -0.20655151 91.35419159 -0.21779053 92.385849 -0.22937012 C99.52306 -0.16552115 104.84587066 1.32039566 110.3581543 5.96630859 C116.24059618 13.23693735 117.9585147 18.74419201 117.72143555 28.13037109 C116.94358452 35.12238755 113.66589631 39.75107883 108.36987305 44.29052734 C102.73747709 48.34585243 99.29884918 49.42126274 92.36987305 49.29052734 C89.63167655 90.86524829 89.63167655 90.86524829 104.7565918 128.12353516 C109.35168273 134.29575476 112.44487217 139.49678373 111.36987305 147.29052734 C110.36987305 149.29052734 110.36987305 149.29052734 108.36987305 150.29052734 C102.79594988 150.99832711 102.79594988 150.99832711 100.36987305 150.29052734 C96.07036052 146.00874476 93.47297 140.27610109 90.61987305 134.97802734 C90.11327148 134.04667969 89.60666992 133.11533203 89.0847168 132.15576172 C87.84203235 129.86969127 86.60391404 127.58127165 85.36987305 125.29052734 C79.34060906 126.56183353 73.4327297 128.08160134 67.50268555 129.75268555 C49.85113354 134.69866523 32.18024973 137.94681704 13.96362305 139.89599609 C13.28082275 139.975354 12.59802246 140.05471191 11.89453125 140.13647461 C9.36987305 140.29052734 9.36987305 140.29052734 5.77294922 140.09887695 C1.65924467 140.01378334 -1.66797603 140.15679753 -5.63012695 141.29052734 C-9.39216109 145.09321364 -11.26976235 149.61345861 -13.31762695 154.47802734 C-13.93642987 155.81996492 -14.56177097 157.15890539 -15.19335938 158.49487305 C-16.45598894 161.17579883 -17.69267904 163.86626962 -18.91040039 166.56787109 C-21.16433048 171.51517084 -23.77613945 176.24328503 -26.44262695 180.97802734 C-31.55128781 190.23364671 -36.50601352 199.56750238 -41.44262695 208.91552734 C-47.12833483 219.67770687 -52.82343548 230.43442505 -58.56762695 241.16552734 C-59.47931641 242.87059448 -59.47931641 242.87059448 -60.40942383 244.61010742 C-63.211977 249.83738865 -66.03923164 255.04772335 -68.93481445 260.22412109 C-69.44536377 261.13887207 -69.95591309 262.05362305 -70.48193359 262.99609375 C-71.41702061 264.66496542 -72.35834515 266.33036688 -73.30761719 267.99121094 C-77.42848276 275.33671628 -79.81317429 281.931754 -77.63012695 290.29052734 C-75.30005828 295.97509144 -72.27118828 299.09101792 -66.69262695 301.59912109 C-61.55444852 303.32157864 -56.56202293 303.43478749 -51.186203 303.42424011 C-50.33819651 303.42650567 -49.49019003 303.42877123 -48.61648637 303.43110543 C-45.77621142 303.43743328 -42.93598434 303.43661685 -40.09570312 303.43579102 C-38.05871011 303.43878327 -36.02171766 303.44218596 -33.98472595 303.44596863 C-28.45160046 303.45480628 -22.91849044 303.45714665 -17.38535857 303.45778441 C-12.76563488 303.45873401 -8.14591479 303.46241292 -3.52619249 303.46595651 C7.37414176 303.47410027 18.27446775 303.47654083 29.17480469 303.47583008 C40.41679474 303.47522937 51.65873679 303.48578004 62.9007147 303.50157374 C72.55436612 303.51465244 82.20800187 303.52001383 91.86166209 303.51937467 C97.6264942 303.51911977 103.39128367 303.52196658 109.15610695 303.53255272 C114.57909086 303.54223914 120.0019914 303.54230909 125.42497826 303.53503609 C127.41313168 303.53399091 129.40129031 303.53634915 131.38943481 303.54239655 C134.10805362 303.55012894 136.82638542 303.54546336 139.54499817 303.5377655 C140.71890404 303.54548085 140.71890404 303.54548085 141.91652519 303.55335206 C149.08076544 303.50867173 156.03778405 302.47380775 161.82299805 297.96240234 C165.74041115 293.7284306 167.75211902 287.91822696 167.61987305 282.16552734 C166.25547773 274.6870964 161.92903273 267.90982062 158.36987305 261.29052734 C157.48187894 259.62256882 156.59391982 257.95459154 155.70666504 256.28623962 C152.8361093 250.8908697 149.95093698 245.50352035 147.0534668 240.12255859 C146.45131348 238.99414551 145.84916016 237.86573242 145.22875977 236.703125 C143.95575754 234.36611092 142.66309427 232.06995731 141.31176758 229.78027344 C140.66191895 228.65314941 140.01207031 227.52602539 139.3425293 226.36474609 C138.74835205 225.36403076 138.1541748 224.36331543 137.54199219 223.33227539 C136.07997642 219.53822114 136.41491396 217.20258901 137.36987305 213.29052734 C139.62404347 210.70240575 140.97508284 210.34810092 144.36987305 209.85302734 C148.16304127 210.40619771 148.90069621 211.40647686 151.36987305 214.29052734 C152.68431497 216.48278849 153.8923512 218.64010912 155.05737305 220.90771484 C155.56661819 221.87583351 155.56661819 221.87583351 156.08615112 222.86351013 C157.18765439 224.96063604 158.27894615 227.06288306 159.36987305 229.16552734 C160.89040384 232.07460551 162.41519527 234.98144124 163.94018555 237.88818359 C164.50626022 238.96978004 164.50626022 238.96978004 165.08377075 240.07322693 C167.34736621 244.38675948 169.66538544 248.66303426 172.04956055 252.91162109 C172.8674707 254.37269287 172.8674707 254.37269287 173.7019043 255.86328125 C174.69248973 257.62219735 175.69176997 259.37626086 176.7019043 261.12402344 C182.41977876 271.32711464 185.24230561 281.88265157 182.18237305 293.35302734 C179.22110914 302.18223357 174.16174623 309.05931206 166.36987305 314.29052734 C159.75730339 317.53184328 154.05729127 318.87669605 146.73071289 318.79846191 C145.35640641 318.80782186 145.35640641 318.80782186 143.95433617 318.81737089 C140.91289184 318.83320669 137.87225948 318.82073363 134.83081055 318.80810547 C132.6386875 318.81353076 130.4465681 318.8206557 128.25445557 318.8293457 C122.32058977 318.84753333 116.38700312 318.84053022 110.45313263 318.82782936 C104.23315192 318.81767812 98.01319457 318.82710094 91.79321289 318.83337402 C80.68101892 318.84110944 69.56893441 318.82870555 58.45676208 318.80833668 C48.39713744 318.79046751 38.33769748 318.79357219 28.27807617 318.81201172 C16.57449954 318.83345484 4.87103057 318.84136617 -6.8325634 318.82956266 C-13.01995144 318.82333757 -19.20721248 318.82246514 -25.39459229 318.83570862 C-31.21254339 318.84729229 -37.03014691 318.83919504 -42.84806061 318.81613159 C-44.97888869 318.810858 -47.1097462 318.81233506 -49.24056244 318.82118225 C-52.15775426 318.83217464 -55.07384444 318.81832946 -57.9909668 318.79846191 C-59.24440101 318.81184624 -59.24440101 318.81184624 -60.52315712 318.82550097 C-70.4816602 318.69467743 -78.22950686 314.71410929 -85.3605957 307.93115234 C-91.68841021 300.56866937 -95.11309865 291.73391971 -94.89111328 282.04125977 C-93.90784028 271.67780148 -88.93314283 262.4096607 -83.94262695 253.47802734 C-83.28184241 252.27385767 -82.62245609 251.06891983 -81.96435547 249.86328125 C-80.92773344 247.96481298 -79.89016118 246.06692554 -78.84819031 244.17138672 C-75.20957809 237.55071248 -71.67425165 230.876476 -68.14291382 224.19815063 C-62.12562045 212.82361324 -56.05181675 201.48044895 -49.93847656 190.15722656 C-44.9323094 180.87482463 -39.98580836 171.56134929 -35.04492188 162.24411011 C-29.58083135 151.94185562 -24.08101116 141.659987 -18.53442383 131.40185547 C-17.47644826 129.44347517 -16.43449769 127.47636838 -15.40722656 125.50170898 C-14.10011916 123.13979338 -12.77436983 120.99853249 -11.26123047 118.78051758 C-2.59714048 105.42621111 -3.392189 91.70087111 -3.56762695 76.22802734 C-3.56454617 73.60757666 -3.5574157 70.98712746 -3.54614258 68.36669922 C-3.52747657 62.00723834 -3.55868883 55.64958164 -3.63012695 49.29052734 C-4.73026123 49.30728516 -5.83039551 49.32404297 -6.96386719 49.34130859 C-13.09151361 49.25643475 -18.23292448 46.7320313 -22.5324707 42.35302734 C-28.42564779 34.74520949 -29.6848375 27.83843335 -28.63012695 18.29052734 C-26.45246142 10.87633586 -22.33134192 6.04726907 -15.63012695 2.29052734 C-10.6323338 -0.39114715 -5.52243925 -0.00496868 0 0 Z M-12.56762695 19.04052734 C-14.12411412 22.33661782 -14.07222834 24.69055892 -13.63012695 28.29052734 C-11.8345029 31.04381755 -10.57757773 32.81680195 -7.63012695 34.29052734 C-5.93775059 34.41966231 -4.24092104 34.49285444 -2.54418945 34.53662109 C-1.02438477 34.58592773 -1.02438477 34.58592773 0.52612305 34.63623047 C2.66404208 34.69720267 4.80206857 34.75452185 6.94018555 34.80810547 C7.9559668 34.84226562 8.97174805 34.87642578 10.01831055 34.91162109 C10.94820801 34.93667725 11.87810547 34.9617334 12.83618164 34.98754883 C15.47614278 35.30323507 17.13629818 35.86700993 19.36987305 37.29052734 C20.76922318 40.08922761 20.62252709 42.19551526 20.36987305 45.29052734 C19.24487305 47.10302734 19.24487305 47.10302734 17.36987305 48.29052734 C15.37583564 48.65785002 13.37570077 48.99427366 11.36987305 49.29052734 C11.37288925 50.01112335 11.37590546 50.73171936 11.37901306 51.47415161 C11.40143229 58.32782735 11.38970813 65.18072567 11.34140682 72.03424263 C11.31774091 75.5563273 11.30642215 79.07747495 11.32519531 82.59960938 C11.46358337 111.55550463 11.46358337 111.55550463 3.36987305 123.29052734 C3.36987305 123.95052734 3.36987305 124.61052734 3.36987305 125.29052734 C21.24399575 124.70925506 38.91410061 121.59220204 56.24487305 117.29052734 C57.19998779 117.05374268 58.15510254 116.81695801 59.13916016 116.57299805 C65.77700575 114.85724674 71.86598479 112.65557762 78.36987305 110.29052734 C78.03987305 90.16052734 77.70987305 70.03052734 77.36987305 49.29052734 C66.6449239 49.08056608 66.6449239 49.08056608 55.91943359 48.90258789 C54.57345806 48.87029837 53.2275079 48.8369247 51.8815918 48.80224609 C51.1844104 48.7960022 50.487229 48.7897583 49.7689209 48.7833252 C46.87223766 48.69706771 44.8431276 48.61683419 42.41992188 46.94604492 C40.78156564 44.36299594 41.05954608 42.26966626 41.36987305 39.29052734 C43.36987305 36.29052734 43.36987305 36.29052734 46.36987305 35.29052734 C47.98478023 35.19524164 49.60324445 35.15517757 51.22094727 35.14868164 C52.20561981 35.14164719 53.19029236 35.13461273 54.20480347 35.12736511 C55.2673233 35.12320084 56.32984314 35.11903656 57.42456055 35.11474609 C59.6706637 35.09155105 61.91675749 35.06743385 64.1628418 35.04248047 C67.70701395 35.00733856 71.25084067 34.97800477 74.79516602 34.96459961 C78.21372319 34.94913641 81.63126992 34.90893932 85.04956055 34.86474609 C86.10803192 34.86665451 87.1665033 34.86856293 88.25704956 34.87052917 C94.18624244 34.78433986 94.18624244 34.78433986 99.51489258 32.37963867 C101.94284493 29.64523642 102.33299747 28.68140843 102.68237305 24.97802734 C102.31408774 20.63226071 101.55083519 19.2203609 98.36987305 16.29052734 C93.22237252 14.04117645 88.4973589 14.00008984 82.98730469 14.01586914 C82.0613298 14.01075821 81.13535492 14.00564728 80.18132019 14.00038147 C77.13082352 13.98652031 74.08055365 13.98743956 71.0300293 13.98974609 C68.90302955 13.98585742 66.77603057 13.9815224 64.64903259 13.97676086 C60.19470704 13.96930625 55.74046076 13.96958458 51.28613281 13.97485352 C45.58544798 13.98064886 39.88508796 13.96371173 34.18445683 13.94050884 C29.79290376 13.92575918 25.40142872 13.92490147 21.00985527 13.92801857 C18.90836379 13.92750604 16.80686786 13.92228112 14.70540047 13.91220665 C11.76399901 13.89983505 8.82322772 13.90663833 5.88183594 13.91821289 C4.58721939 13.90674728 4.58721939 13.90674728 3.26644897 13.89505005 C-2.8282438 13.94791208 -7.87647458 14.80335746 -12.56762695 19.04052734 Z " fill="#7FB178" transform="translate(211.630126953125,124.70947265625)"/>
<path d="M0 0 C6.97422759 7.29770753 9.7817873 14.39876994 10.10546875 24.453125 C9.80428976 34.10056813 7.24979017 41.10286906 0.58984375 48.1328125 C-7.36843076 55.43311943 -15.06402991 58.47957212 -25.81640625 58.19921875 C-35.78290352 57.24787128 -42.87310948 52.88083207 -49.64453125 45.703125 C-56.30469313 37.3506269 -57.52779788 28.41223162 -56.39453125 17.953125 C-54.69454702 9.7294513 -50.84594587 3.33801727 -44.39453125 -2.046875 C-29.75054507 -11.28444928 -13.57530123 -11.6043358 0 0 Z M-35.48046875 10.8359375 C-40.07381359 15.91673934 -41.7794961 19.68403681 -41.66796875 26.54296875 C-41.04149621 32.06487674 -38.53985088 36.36735892 -34.26953125 39.890625 C-29.93836569 42.63245727 -25.45907303 43.23856616 -20.39453125 42.953125 C-14.50474345 41.11860093 -10.10682921 38.43300481 -6.58203125 33.328125 C-4.5912412 27.67009012 -4.59401021 22.40177759 -6.45703125 16.703125 C-9.98413443 11.69691403 -13.7775092 8.09814177 -19.76953125 6.390625 C-25.84007435 5.40983998 -30.88885924 6.69145101 -35.48046875 10.8359375 Z " fill="#DBC068" transform="translate(308.39453125,31.046875)"/>
<path d="M0 0 C5.3397146 3.06979544 8.74981984 7.13273702 11.1875 12.75 C12.31136715 20.11757356 11.70515463 26.49079603 7.3203125 32.6796875 C3.26728759 37.21665568 -1.1772336 39.55089238 -7.1875 40.4375 C-13.34932024 40.73046998 -18.58270854 39.79428616 -23.296875 35.62890625 C-28.75741596 29.66067036 -30.69223866 25.01963251 -30.5 16.93359375 C-29.86868739 10.63033187 -27.05238035 6.38612385 -22.25 2.4375 C-15.34491748 -2.27891797 -7.78126624 -3.43029103 0 0 Z M-13.5625 15.0625 C-15.60190614 17.3962132 -15.60190614 17.3962132 -15 20.6875 C-14.7525 21.595 -14.505 22.5025 -14.25 23.4375 C-12.27 24.0975 -10.29 24.7575 -8.25 25.4375 C-6.6 23.7875 -4.95 22.1375 -3.25 20.4375 C-4.32401108 17.52232708 -5.02810176 15.65939824 -7.25 13.4375 C-11.175598 13.05420299 -11.175598 13.05420299 -13.5625 15.0625 Z " fill="#E7C266" transform="translate(228.25,75.5625)"/>
<path d="M0 0 C5.55901043 3.63473759 8.176872 7.73171723 10 14 C11.12070653 20.6327529 9.61162846 26.36543595 6 32 C1.77841605 36.78378036 -2.68941744 39.56498708 -9.12890625 40.21484375 C-16.33789314 40.51979243 -22.18036888 38.46315495 -27.64453125 33.5703125 C-31.82094054 28.73193632 -33.7648966 22.68271648 -33.453125 16.3359375 C-32.35066793 10.65258125 -29.64836958 5.73747063 -25.6875 1.5625 C-17.01700222 -3.47848708 -9.17368404 -4.61486753 0 0 Z M-16.875 11.5 C-19.64839572 14.76281849 -20.07481382 16.73561227 -20 21 C-18.65884601 24.00979883 -18.65884601 24.00979883 -16 26 C-11.88546541 27.27176524 -9.97148295 27.50686067 -6.125 25.5 C-3.35160428 22.23718151 -2.92518618 20.26438773 -3 16 C-4.34115399 12.99020117 -4.34115399 12.99020117 -7 11 C-11.11453459 9.72823476 -13.02851705 9.49313933 -16.875 11.5 Z " fill="#6BAE7B" transform="translate(211,364)"/>
<path d="M0 0 C8.22686255 7.624897 8.22686255 7.624897 8.765625 13.64453125 C8.86429435 18.99734344 8.74668241 22.85551528 5.5625 27.375 C0.77125953 32.08860463 -2.34632625 34.52289293 -9.1875 34.625 C-15.91311509 34.54464618 -19.41837587 33.44001332 -24.1875 28.5625 C-28.19731092 22.88193453 -28.85179491 18.55140015 -27.9765625 11.7734375 C-26.69774456 6.08362436 -23.09575912 2.59994862 -18.4375 -0.625 C-12.44789198 -2.62153601 -5.71602945 -2.70212301 0 0 Z M-14.375 13.0625 C-15.74566224 15.38902222 -15.74566224 15.38902222 -14.6875 18.0625 C-13.6352169 20.27255147 -13.6352169 20.27255147 -12.4375 21.375 C-10.09805264 21.08769945 -7.7635857 20.75563221 -5.4375 20.375 C-4.2866686 16.30420792 -4.2866686 16.30420792 -5.5625 12.5 C-8.93733495 10.47509903 -11.3852526 10.45852646 -14.375 13.0625 Z " fill="#6DAE7B" transform="translate(290.4375,281.625)"/>
<path d="M0 0 C4.75982924 2.62772498 7.04616381 6.26349144 8.75 11.375 C9.17280764 17.82281656 8.66585108 21.91647664 4.34375 27.04296875 C0.33896676 31.01941626 -3.20668626 32.32222296 -8.828125 32.53515625 C-14.46800878 32.16219619 -17.95645827 29.97820308 -21.625 25.875 C-24.80501335 21.99776447 -25.61113272 18.62167392 -25.52734375 13.56640625 C-24.83421455 8.08970932 -22.4527364 4.33228 -18.1875 0.9375 C-12.08602658 -2.30796459 -6.30792052 -2.84151186 0 0 Z M-10.25 11.375 C-10.91 13.025 -11.57 14.675 -12.25 16.375 C-11.02190909 18.02055699 -11.02190909 18.02055699 -9.25 19.375 C-7.08700789 19.14742269 -7.08700789 19.14742269 -5.25 18.375 C-4.55840599 16.52774948 -4.55840599 16.52774948 -4.25 14.375 C-4.91 13.385 -5.57 12.395 -6.25 11.375 C-7.57 11.375 -8.89 11.375 -10.25 11.375 Z " fill="#2FA587" transform="translate(322.25,383.625)"/>
<path d="M0 0 C5.19087687 2.83665019 8.06083849 6.48078538 9.7265625 12.1484375 C10.59709677 17.48171066 9.65608757 21.60262273 6.7265625 26.1484375 C3.40822241 30.09457166 0.82634909 32.18621362 -4.2734375 33.1484375 C-10.13353561 33.49314915 -14.20733845 32.7090547 -18.7734375 28.8984375 C-22.86627887 24.83035122 -24.08133486 22.10148097 -24.6484375 16.3359375 C-24.46067059 10.80724523 -22.60494628 6.36713134 -18.578125 2.53515625 C-12.8342147 -1.59255257 -6.66620156 -2.4969621 0 0 Z M-9.2734375 12.1484375 C-9.9334375 12.8084375 -10.5934375 13.4684375 -11.2734375 14.1484375 C-10.95302353 16.75124318 -10.95302353 16.75124318 -10.2734375 19.1484375 C-8.43642961 19.92086019 -8.43642961 19.92086019 -6.2734375 20.1484375 C-4.35677083 19.06510417 -4.35677083 19.06510417 -3.2734375 17.1484375 C-3.50101481 14.98544539 -3.50101481 14.98544539 -4.2734375 13.1484375 C-6.67063182 12.46885147 -6.67063182 12.46885147 -9.2734375 12.1484375 Z " fill="#A1B672" transform="translate(263.2734375,194.8515625)"/>
<path d="M0 0 C2.1875 1.9375 2.1875 1.9375 4 5 C4.66708984 6.051875 4.66708984 6.051875 5.34765625 7.125 C10.0661901 14.90598062 10.0661901 14.90598062 9 20 C7.4375 22.375 7.4375 22.375 5 24 C1.26084491 24.53416501 -0.94721344 24.71217914 -4.125 22.5625 C-8.78654504 16.19172178 -12.11536368 11.08638667 -11 3 C-8.89875323 -1.20249354 -4.15034209 -0.86887243 0 0 Z " fill="#50AA80" transform="translate(337,293)"/>
<path d="M0 0 C3.74785043 2.08213913 4.79482295 3.2947039 6 7.4375 C6 11.48459923 5.72493174 13.01960591 3 16 C-1.07721879 17.84628775 -3.04128999 18.32559963 -7.3125 16.875 C-11.21126761 14.15492958 -11.21126761 14.15492958 -12 11 C-11.92484951 6.79157236 -11.65198603 4.72649872 -8.8125 1.5625 C-5.45611204 -0.30215998 -3.7822566 -0.6303761 0 0 Z " fill="#7CB178" transform="translate(227,312)"/>
<path d="M0 0 C2.5 1.5625 2.5 1.5625 4 4 C4.56288002 7.94016013 4.60396028 10.05782196 2.4375 13.4375 C-0.94217804 15.60396028 -3.05983987 15.56288002 -7 15 C-9.4375 13.5 -9.4375 13.5 -11 11 C-11.6227188 7.48305406 -11.63278358 4.26556715 -10 1 C-6.73443285 -0.63278358 -3.51694594 -0.6227188 0 0 Z " fill="#52AA80" transform="translate(277,357)"/>
</svg>
